<?xml version="1.0" encoding="UTF-8"?>
<svg id="Livello_1" xmlns="http://www.w3.org/2000/svg" version="1.1" viewBox="0 0 1698.5 534.7">
  <!-- Generator: Adobe Illustrator 29.4.0, SVG Export Plug-In . SVG Version: 2.1.0 Build 152)  -->
  <defs>
    <style>
      .st0 {
        fill: #72e028;
      }

      .st1 {
        fill: #656cff;
      }
    </style>
  </defs>
  <rect class="st1" x="27.6" y="11.4" width="512" height="512" rx="256" ry="256"/>
  <polygon class="st0" points="124.5 253.7 261 390.2 452 199.1 397.5 144.5 261 281 179.1 199.1 124.5 253.7"/>
  <g>
    <polygon class="st1" points="700.8 409.9 754.3 409.9 754.3 284.4 877 284.4 877 239.6 754.3 239.6 754.3 159.4 890 159.4 890 114.5 700.8 114.5 700.8 409.9"/>
    <path class="st1" d="M1086,201.6c-8.8-5.7-18.4-9.8-29-12.3-10.6-2.5-21.2-3.8-31.9-3.8-15.5,0-29.6,2.3-42.4,6.9-12.8,4.6-23.6,11.4-32.5,20.5-8.8,9.1-15.2,20.4-19,33.8l48.8,6.9c2.6-7.6,7.6-14.2,15.1-19.8,7.5-5.6,17.6-8.4,30.4-8.4s21.4,3,27.8,8.9c6.4,6,9.7,14.4,9.7,25.2v.9c0,5-1.9,8.7-5.6,11-3.7,2.4-9.6,4.1-17.7,5.2-8.1,1.1-18.6,2.3-31.6,3.7-10.8,1.2-21.2,3-31.2,5.6-10.1,2.5-19.1,6.3-27,11.2-8,4.9-14.3,11.4-18.9,19.6-4.6,8.2-6.9,18.5-6.9,31s3.2,26.7,9.7,36.6c6.5,9.9,15.3,17.4,26.5,22.4,11.2,5,23.8,7.6,37.9,7.6s21.6-1.6,30.2-4.8c8.6-3.2,15.8-7.5,21.5-12.8,5.7-5.3,10.2-11.1,13.3-17.2h1.7v30.4h50.2v-148.3c0-14.7-2.7-27-8-36.8-5.3-9.8-12.4-17.6-21.1-23.3ZM1063.1,330.4c0,8.2-2.1,15.7-6.3,22.6-4.2,6.9-10.1,12.5-17.8,16.7-7.7,4.2-16.8,6.3-27.3,6.3s-19.8-2.5-26.8-7.4c-7-4.9-10.5-12.2-10.5-21.8s1.8-12.2,5.3-16.5c3.6-4.3,8.4-7.6,14.6-10,6.2-2.4,13.1-4.1,20.9-5.2,3.5-.5,7.5-1.1,12.3-1.7,4.7-.7,9.5-1.4,14.3-2.3,4.8-.9,9.2-1.9,13.1-3,3.9-1.2,6.7-2.4,8.3-3.8v26.1Z"/>
    <path class="st1" d="M1267.4,368.2c-2.7.5-5.7.7-9,.7s-8.3-.7-11.8-2c-3.6-1.3-6.4-3.9-8.6-7.6-2.2-3.7-3.2-9.1-3.2-16.1v-114.5h43.7v-40.4h-43.7v-53.1h-52.2v53.1h-31.4v40.4h31.4v123.2c0,13.8,2.9,25.4,9,34.6,6.1,9.2,14.4,16,24.9,20.4,10.5,4.4,22.3,6.4,35.3,6,7.4-.2,13.7-.9,18.8-2,5.1-1.2,9.1-2.2,11.9-3.2l-8.8-40.8c-1.4.4-3.5.8-6.3,1.3Z"/>
    <path class="st1" d="M1421.8,368.2c-2.7.5-5.7.7-9,.7s-8.3-.7-11.8-2c-3.6-1.3-6.4-3.9-8.6-7.6-2.2-3.7-3.2-9.1-3.2-16.1v-114.5h43.7v-40.4h-43.7v-53.1h-52.2v53.1h-31.4v40.4h31.4v123.2c0,13.8,2.9,25.4,9,34.6,6.1,9.2,14.4,16,24.9,20.4,10.5,4.4,22.3,6.4,35.3,6,7.4-.2,13.7-.9,18.8-2,5.1-1.2,9.1-2.2,11.9-3.2l-8.8-40.8c-1.4.4-3.5.8-6.3,1.3Z"/>
    <path class="st1" d="M1670.8,297.4c0-19.4-2.7-36.2-8.1-50.3-5.4-14.1-12.8-25.7-22.1-34.8-9.4-9.1-20.1-15.9-32.3-20.3-12.2-4.4-25.1-6.6-38.7-6.6-21.2,0-39.6,4.8-55.2,14.5-15.7,9.7-27.9,23.1-36.6,40.4-8.7,17.3-13.1,37.3-13.1,60.1s4.3,43.3,13,60.4c8.7,17.1,21,30.2,37.1,39.5,16.1,9.3,35.3,13.9,57.5,13.9s32.5-2.6,45.9-7.9c13.4-5.2,24.4-12.6,33-22.2,8.6-9.6,14.4-20.8,17.5-33.7l-48.8-5.5c-2.3,6.3-5.7,11.5-10.2,15.7-4.5,4.2-9.9,7.4-16,9.6-6.2,2.2-13,3.2-20.6,3.2-11.3,0-21.3-2.4-29.7-7.3-8.5-4.9-15.1-11.9-19.8-21.1-4.6-8.9-6.9-19.5-7-31.8h154.3v-16ZM1516.6,278.2c.5-8.7,2.7-16.7,6.7-24.2,4.5-8.3,10.7-15,18.8-20.2,8.1-5.1,17.5-7.7,28.1-7.7s18.8,2.3,26.3,6.8c7.5,4.5,13.4,10.7,17.7,18.5,4.2,7.8,6.4,16.8,6.5,26.8h-104.2Z"/>
  </g>
</svg>