<svg width="20" height="20" viewBox="0 0 20 20" fill="none" xmlns="http://www.w3.org/2000/svg">
<path d="M10 15.4545C8.55273 15.4545 7.16364 14.88 6.14545 13.8545C5.12 12.8291 4.54545 11.4473 4.54545 10C4.54545 8.55273 5.12 7.16364 6.14545 6.14545C7.17091 5.12 8.55273 4.54545 10 4.54545C11.4473 4.54545 12.8364 5.12 13.8545 6.14545C14.88 7.17091 15.4545 8.55273 15.4545 10C15.4545 11.4473 14.88 12.8364 13.8545 13.8545C12.8291 14.88 11.4473 15.4545 10 15.4545ZM10 13.6364C10.9673 13.6364 11.8909 13.2509 12.5745 12.5745C13.2582 11.8909 13.6364 10.9673 13.6364 10C13.6364 9.03273 13.2509 8.10909 12.5745 7.42545C11.8909 6.74182 10.9673 6.36364 10 6.36364C9.03273 6.36364 8.10909 6.74909 7.42545 7.42545C6.74182 8.10909 6.36364 9.03273 6.36364 10C6.36364 10.9673 6.74909 11.8909 7.42545 12.5745C8.10909 13.2582 9.03273 13.6364 10 13.6364ZM9.09091 0H10.9091V2.72727H9.09091V0ZM9.09091 17.2727H10.9091V20H9.09091V17.2727ZM2.28364 3.57091L3.57091 2.28364L5.49818 4.21091L4.21091 5.49818L2.28364 3.57091ZM14.5018 15.7891L15.7891 14.5018L17.7164 16.4291L16.4291 17.7164L14.5018 15.7891ZM16.4291 2.28364L17.7164 3.57091L15.7891 5.49818L14.5018 4.21091L16.4291 2.28364ZM4.21091 14.5018L5.49818 15.7891L3.57091 17.7164L2.28364 16.4291L4.21091 14.5018ZM20 9.09091V10.9091H17.2727V9.09091H20ZM2.72727 9.09091V10.9091H0V9.09091H2.72727Z" fill="black"/>
</svg>
