<?xml version="1.0" encoding="UTF-8"?>
<svg id="Livello_1" xmlns="http://www.w3.org/2000/svg" version="1.1" viewBox="0 0 24 24">
  <!-- Generator: Adobe Illustrator 29.4.0, SVG Export Plug-In . SVG Version: 2.1.0 Build 152)  -->
  <defs>
    <style>
      .st0 {
        fill: #5c61e6;
      }
    </style>
  </defs>
  <path class="st0" d="M12,1l8.2,1.8c.5.1.8.5.8,1v10c0,2-1,3.9-2.7,5l-6.3,4.2-6.3-4.2c-1.7-1.1-2.7-3-2.7-5V3.8c0-.5.3-.9.8-1l8.2-1.8ZM12,3l-7,1.6v9.2c0,1.3.7,2.6,1.8,3.3l5.2,3.5,5.2-3.5c1.1-.7,1.8-2,1.8-3.3V4.6l-7-1.6ZM16.5,8.2l1.4,1.4-6.4,6.4-4.2-4.2,1.4-1.4,2.8,2.8,5-4.9Z"/>
</svg>