<?xml version="1.0" encoding="UTF-8"?>
<svg id="Livello_1" xmlns="http://www.w3.org/2000/svg" version="1.1" viewBox="0 0 24 24">
  <!-- Generator: Adobe Illustrator 29.4.0, SVG Export Plug-In . SVG Version: 2.1.0 Build 152)  -->
  <defs>
    <style>
      .st0 {
        fill: #5c61e6;
      }
    </style>
  </defs>
  <path class="st0" d="M21,13.2v6.8h1v2H2v-2h1v-6.8c-1.2-.8-2-2.2-2-3.7s.2-1.6.6-2.3l2.7-4.7c.2-.3.5-.5.9-.5h13.6c.4,0,.7.2.9.5l2.7,4.7c.4.7.6,1.5.6,2.3,0,1.6-.8,2.9-2,3.7ZM19,14c-.2,0-.3,0-.5,0-1.3,0-2.4-.5-3.2-1.4-.8.9-2,1.4-3.2,1.4s-2.4-.5-3.2-1.4c-.8.9-2,1.4-3.2,1.4s-.3,0-.5,0v6h14v-6ZM5.8,4l-2.4,4.2c-.2.4-.4.8-.4,1.3,0,1.4,1.1,2.5,2.5,2.5s1.9-.6,2.3-1.6c.3-.8,1.5-.8,1.9,0,.4.9,1.3,1.6,2.3,1.6s1.9-.6,2.3-1.6c.3-.8,1.5-.8,1.9,0,.4.9,1.3,1.6,2.3,1.6s2.5-1.1,2.5-2.5-.1-.9-.4-1.3l-2.4-4.2H5.8Z"/>
</svg>