<?xml version="1.0" encoding="UTF-8"?>
<svg id="Livello_1" xmlns="http://www.w3.org/2000/svg" version="1.1" viewBox="0 0 24 24">
  <!-- Generator: Adobe Illustrator 29.4.0, SVG Export Plug-In . SVG Version: 2.1.0 Build 152)  -->
  <defs>
    <style>
      .st0 {
        fill: #5c61e6;
      }
    </style>
  </defs>
  <path class="st0" d="M20,22H4c-.6,0-1-.4-1-1V3c0-.6.4-1,1-1h16c.6,0,1,.4,1,1v18c0,.6-.4,1-1,1ZM19,20V4H5v16h14ZM7,6h4v4h-4v-4ZM7,12h10v2H7v-2ZM7,16h10v2H7v-2ZM13,7h4v2h-4v-2Z"/>
</svg>