<?xml version="1.0" encoding="UTF-8"?>
<svg id="Livello_1" xmlns="http://www.w3.org/2000/svg" version="1.1" viewBox="0 0 24 24">
  <!-- Generator: Adobe Illustrator 29.4.0, SVG Export Plug-In . SVG Version: 2.1.0 Build 152)  -->
  <defs>
    <style>
      .st0 {
        fill: #5c61e6;
      }
    </style>
  </defs>
  <path class="st0" d="M2,22c0-4.4,3.6-8,8-8s8,3.6,8,8h-2c0-3.3-2.7-6-6-6s-6,2.7-6,6h-2ZM10,13c-3.3,0-6-2.7-6-6S6.7,1,10,1s6,2.7,6,6-2.7,6-6,6ZM10,11c2.2,0,4-1.8,4-4s-1.8-4-4-4-4,1.8-4,4,1.8,4,4,4ZM18.3,14.7c2.8,1.3,4.7,4,4.7,7.3h-2c0-2.4-1.5-4.5-3.5-5.5l.8-1.8ZM17.6,3.4c2,.8,3.4,2.8,3.4,5.1s-2.2,5.2-5,5.5v-2c1.7-.2,3-1.7,3-3.5s-.8-2.6-2-3.1l.6-1.9Z"/>
</svg>