<?xml version="1.0" encoding="UTF-8"?>
<svg id="Livello_1" xmlns="http://www.w3.org/2000/svg" version="1.1" viewBox="0 0 24 24">
  <!-- Generator: Adobe Illustrator 29.4.0, SVG Export Plug-In . SVG Version: 2.1.0 Build 152)  -->
  <defs>
    <style>
      .st0 {
        fill: #5c61e6;
      }
    </style>
  </defs>
  <path class="st0" d="M3.2,4.5c2.4-2.4,6.3-2.5,8.8-.3,2.6-2.2,6.4-2.1,8.8.3,2.4,2.4,2.5,6.3.3,8.8l-7.8,7.8c-.7.7-1.9.8-2.7.1h-.1c0-.1-7.8-7.9-7.8-7.9-2.2-2.6-2.1-6.4.3-8.8ZM4.6,5.9c-1.7,1.7-1.8,4.4-.1,6.2v.2c.1,0,7.6,7.4,7.6,7.4l5.3-5.3-3.5-3.5-1.1,1.1c-1.2,1.2-3.1,1.2-4.2,0-1.2-1.2-1.2-3.1,0-4.2l2.1-2.1c-1.7-1.4-4.2-1.3-5.8.2h-.2ZM13.1,8.7c.4-.4,1-.4,1.4,0l4.2,4.2.7-.7c1.8-1.8,1.8-4.6,0-6.4-1.7-1.7-4.4-1.8-6.2-.1h-.2c0,.1-3.2,3.3-3.2,3.3-.4.4-.4.9,0,1.3h0c.4.4.9.5,1.3.2h0c0,0,1.8-1.8,1.8-1.8Z"/>
</svg>